<svg xmlns="http://www.w3.org/2000/svg" version="1.1" xmlns:xlink="http://www.w3.org/1999/xlink" width="512" height="512" x="0" y="0" viewBox="0 0 24 24" style="enable-background:new 0 0 512 512" xml:space="preserve" class=""><g><path d="M12 16c-2.206 0-4-1.794-4-4s1.794-4 4-4 4 1.794 4 4-1.794 4-4 4Zm0-6c-1.103 0-2 .897-2 2s.897 2 2 2 2-.897 2-2-.897-2-2-2ZM5 7a1 1 0 1 0 0 2 1 1 0 0 0 0-2Zm13 3a1 1 0 1 0 2 0 1 1 0 0 0-2 0ZM5 13a1 1 0 1 0 0 2 1 1 0 0 0 0-2Zm13 3a1 1 0 1 0 2 0 1 1 0 0 0-2 0Zm-.999 5c-1.64 0-3.488-.528-5.275-1.039C10.072 19.488 8.361 19 7.001 19c-2.731 0-5.549 1.303-5.578 1.315L0 20.981V7.158C0 6.03.618 5.01 1.615 4.495c1.325-.683 3.333-1.496 5.386-1.496 1.662 0 3.266.535 4.816 1.051 1.463.488 2.845.949 4.183.949 1.386 0 2.517-.362 3.426-.653.302-.097.577-.185.828-.251a2.946 2.946 0 0 1 2.573.52 2.987 2.987 0 0 1 1.174 2.384v12.285l-.587.266c-.131.06-3.233 1.449-6.413 1.449Zm-10-4c1.64 0 3.488.528 5.275 1.039 1.655.473 3.365.961 4.725.961 2 0 4.03-.665 5-1.032V7a1 1 0 0 0-.394-.799.963.963 0 0 0-.842-.171c-.221.059-.464.137-.73.222C19.049 6.567 17.697 7 16 7c-1.662 0-3.266-.535-4.816-1.051C9.721 5.461 8.339 5 7.001 5c-1.739 0-3.547.798-4.47 1.273a.988.988 0 0 0-.532.885V17.94c1.23-.427 3.103-.94 5.002-.94Z" fill="#ffffff" opacity="1" data-original="#000000" class=""></path></g></svg>