<svg xmlns="http://www.w3.org/2000/svg" version="1.1" xmlns:xlink="http://www.w3.org/1999/xlink" width="512" height="512" x="0" y="0" viewBox="0 0 503 503.125" style="enable-background:new 0 0 512 512" xml:space="preserve" class=""><g><path d="M16.05 503.125a15.93 15.93 0 0 1-11.304-4.691 15.959 15.959 0 0 1-4.203-15.168L30.578 362.71a16.026 16.026 0 0 1 4.203-7.445L372.895 17.152c22.867-22.87 60.093-22.87 82.964 0l30.164 30.164c22.872 22.872 22.872 60.098 0 82.965L147.914 468.395a15.896 15.896 0 0 1-7.445 4.203L19.914 502.633a14.784 14.784 0 0 1-3.863.492zm44.481-128.383-22.527 90.41 90.41-22.527L463.41 107.648c10.39-10.39 10.39-27.328 0-37.718l-30.164-30.164c-10.41-10.41-27.351-10.391-37.719 0zm76.074 82.348h.215zm0 0" fill="#ffffff" opacity="1" data-original="#000000"></path><path d="M422.688 187.008c-4.098 0-8.196-1.559-11.31-4.692L320.864 91.82c-6.254-6.254-6.254-16.386 0-22.636 6.25-6.25 16.383-6.25 22.633 0l90.52 90.52c6.25 6.25 6.25 16.382 0 22.632-3.16 3.113-7.254 4.672-11.329 4.672zM136.605 473.09c-4.097 0-8.19-1.559-11.304-4.695l-90.52-90.516c-6.25-6.254-6.25-16.387 0-22.637s16.383-6.25 22.637 0l90.516 90.52c6.25 6.25 6.25 16.383 0 22.633a15.956 15.956 0 0 1-11.329 4.695zm0 0" fill="#ffffff" opacity="1" data-original="#000000"></path></g></svg>