<svg xmlns="http://www.w3.org/2000/svg" version="1.1" xmlns:xlink="http://www.w3.org/1999/xlink" width="512" height="512" x="0" y="0" viewBox="0 0 24 24" style="enable-background:new 0 0 512 512" xml:space="preserve" class=""><g><path d="m9.068 16.347 4.9 4.9.707-.707a7.977 7.977 0 0 0 2.075-7.619l-.246-1 2.086-2.086.217.217a3.085 3.085 0 0 0 3.938.4 3 3 0 0 0 .38-4.565L18.2.954a3.085 3.085 0 0 0-3.938-.4 3 3 0 0 0-.38 4.565l.293.293-2.09 2.088-.985-.242A7.985 7.985 0 0 0 3.464 9.33l-.707.707 4.9 4.895-7.364 7.361 1.414 1.414ZM10.607 9.2l2.1.514 4.3-4.3-1.714-1.707a1 1 0 0 1 .134-1.528 1.084 1.084 0 0 1 1.356.19l4.924 4.924a1 1 0 0 1-.134 1.528 1.084 1.084 0 0 1-1.356-.19L18.586 7l-4.3 4.3.518 2.111a5.977 5.977 0 0 1-.9 4.946L5.646 10.1a5.986 5.986 0 0 1 4.961-.9Z" fill="#ffffff" opacity="1" data-original="#000000"></path></g></svg>