<svg xmlns="http://www.w3.org/2000/svg" version="1.1" xmlns:xlink="http://www.w3.org/1999/xlink" width="512" height="512" x="0" y="0" viewBox="0 0 24 24" style="enable-background:new 0 0 512 512" xml:space="preserve"><g><path d="M19 1H5a5.006 5.006 0 0 0-5 5v8a5.006 5.006 0 0 0 5 5h6v2H7a1 1 0 0 0 0 2h10a1 1 0 0 0 0-2h-4v-2h6a5.006 5.006 0 0 0 5-5V6a5.006 5.006 0 0 0-5-5ZM5 3h14a3 3 0 0 1 3 3v7H2V6a3 3 0 0 1 3-3Zm14 14H5a3 3 0 0 1-2.816-2h19.632A3 3 0 0 1 19 17Z" fill="#ffffff" opacity="1" data-original="#000000"></path></g></svg>