<svg xmlns="http://www.w3.org/2000/svg" version="1.1" xmlns:xlink="http://www.w3.org/1999/xlink" width="512" height="512" x="0" y="0" viewBox="0 0 24 24" style="enable-background:new 0 0 512 512" xml:space="preserve" class=""><g><path d="M20.652 18.266S22.5 20.5 22.5 21.5c0 .64-.244 1.28-.732 1.768S20.64 24 20 24c-.64 0-1.28-.244-1.768-.732S17.5 22.14 17.5 21.5c0-1 1.848-3.234 1.848-3.234a.933.933 0 0 1 1.304 0ZM24 14c0 1.103-.897 2-2 2h-4c-1.103 0-2-.897-2-2 0-.552-.449-1-1-1H1a1 1 0 1 1 0-2h8V7H1a1 1 0 1 1 0-2h8V2H5a1 1 0 1 1 0-2h10a1 1 0 1 1 0 2h-4v3h4c4.962 0 9 4.037 9 9Zm-2 0c0-3.859-3.14-7-7-7h-4v4h4c1.654 0 3 1.346 3 3h4Z" fill="#ffffff" opacity="1" data-original="#000000"></path></g></svg>