<svg xmlns="http://www.w3.org/2000/svg" version="1.1" xmlns:xlink="http://www.w3.org/1999/xlink" width="512" height="512" x="0" y="0" viewBox="0 0 24 24" style="enable-background:new 0 0 512 512" xml:space="preserve"><g><path d="M23.414 4 19.707.293l-1.414 1.414L20 3.414V6a2 2 0 0 0 2 2v10a1 1 0 0 1-2 0v-1a3 3 0 0 0-3-3h-1V3a3 3 0 0 0-3-3H3a3 3 0 0 0-3 3v21h16v-8h1a1 1 0 0 1 1 1v1a3 3 0 0 0 6 0V5.414A2.011 2.011 0 0 0 23.414 4ZM3 2h10a1 1 0 0 1 1 1v6H2V3a1 1 0 0 1 1-1ZM2 22V11h12v11Z" fill="#ffffff" opacity="1" data-original="#000000"></path></g></svg>