<svg xmlns="http://www.w3.org/2000/svg" version="1.1" xmlns:xlink="http://www.w3.org/1999/xlink" width="512" height="512" x="0" y="0" viewBox="0 0 24 24" style="enable-background:new 0 0 512 512" xml:space="preserve" class=""><g><path d="M20 6.101V5c0-2.757-2.243-5-5-5H9C6.243 0 4 2.243 4 5v1.101A5.01 5.01 0 0 0 0 11v8c0 2.757 2.243 5 5 5h14c2.757 0 5-2.243 5-5v-8a5.009 5.009 0 0 0-4-4.899ZM2 19v-8c0-1.304.836-2.415 2-2.828v13.656A3.004 3.004 0 0 1 2 19ZM6 5c0-1.654 1.346-3 3-3h6c1.654 0 3 1.346 3 3v17H6V5Zm16 14a3.004 3.004 0 0 1-2 2.828V8.172c1.164.413 2 1.524 2 2.828v8Zm-11-5a1 1 0 0 1-1 1H9a1 1 0 1 1 0-2h1a1 1 0 0 1 1 1Zm5 0a1 1 0 0 1-1 1h-1a1 1 0 1 1 0-2h1a1 1 0 0 1 1 1Zm-5 4a1 1 0 0 1-1 1H9a1 1 0 1 1 0-2h1a1 1 0 0 1 1 1Zm5 0a1 1 0 0 1-1 1h-1a1 1 0 1 1 0-2h1a1 1 0 0 1 1 1Zm-3-9a1 1 0 1 1-2 0V8h-1a1 1 0 1 1 0-2h1V5a1 1 0 1 1 2 0v1h1a1 1 0 1 1 0 2h-1v1Z" fill="#ffffff" opacity="1" data-original="#000000" class=""></path></g></svg>