<svg xmlns="http://www.w3.org/2000/svg" version="1.1" xmlns:xlink="http://www.w3.org/1999/xlink" width="512" height="512" x="0" y="0" viewBox="0 0 24 24" style="enable-background:new 0 0 512 512" xml:space="preserve"><g><path d="M18 16c0 .378.271.698.644.76l3.042.507A2.762 2.762 0 0 1 24.001 20c0 1.654-1.346 3-3 3v1h-2v-1c-1.654 0-3-1.346-3-3h2c0 .551.449 1 1 1h2c.551 0 1-.449 1-1a.768.768 0 0 0-.644-.76l-3.042-.507A2.762 2.762 0 0 1 16 16c0-1.654 1.346-3 3-3v-1h2v1c1.654 0 3 1.346 3 3h-2c0-.551-.449-1-1-1h-2c-.551 0-1 .449-1 1Zm-3.576-2a5.02 5.02 0 0 1 1.607-2H12V2h-1C4.935 2 0 6.935 0 13s4.935 11 11 11c1.476 0 2.882-.297 4.169-.826a4.962 4.962 0 0 1-.945-1.774A8.947 8.947 0 0 1 11 22c-4.962 0-9-4.038-9-9 0-4.625 3.506-8.446 8-8.945V14h4.424ZM24 9v1H14V0h1c4.962 0 9 4.038 9 9Zm-2.071-1A7.018 7.018 0 0 0 16 2.071V8h5.929Z" fill="#ffffff" opacity="1" data-original="#000000"></path></g></svg>