<svg xmlns="http://www.w3.org/2000/svg" version="1.1" xmlns:xlink="http://www.w3.org/1999/xlink" width="512" height="512" x="0" y="0" viewBox="0 0 24 24" style="enable-background:new 0 0 512 512" xml:space="preserve"><g><g data-name="01 align center"><path d="M21 24h-2v-5.043A2.96 2.96 0 0 0 16.043 16H7.957A2.96 2.96 0 0 0 5 18.957V24H3v-5.043A4.963 4.963 0 0 1 7.957 14h8.086A4.963 4.963 0 0 1 21 18.957ZM12 12a6 6 0 1 1 6-6 6.006 6.006 0 0 1-6 6Zm0-10a4 4 0 1 0 4 4 4 4 0 0 0-4-4Z" fill="#ffffff" opacity="1" data-original="#000000"></path></g></g></svg>