<svg xmlns="http://www.w3.org/2000/svg" version="1.1" xmlns:xlink="http://www.w3.org/1999/xlink" width="512" height="512" x="0" y="0" viewBox="0 0 32 32" style="enable-background:new 0 0 512 512" xml:space="preserve" fill-rule="evenodd" class=""><g><path d="M12 17a3 3 0 0 0-3-3H5a3 3 0 0 0-3 3v10a3 3 0 0 0 3 3h4a3 3 0 0 0 3-3zm18 6a3 3 0 0 0-3-3H17a3 3 0 0 0-3 3v4a3 3 0 0 0 3 3h10a3 3 0 0 0 3-3zm-20-6v10a1 1 0 0 1-1 1H5a1 1 0 0 1-1-1V17a1 1 0 0 1 1-1h4a1 1 0 0 1 1 1zm18 6v4a1 1 0 0 1-1 1H17a1 1 0 0 1-1-1v-4a1 1 0 0 1 1-1h10a1 1 0 0 1 1 1zm2-18a3 3 0 0 0-3-3h-4a3 3 0 0 0-3 3v10a3 3 0 0 0 3 3h4a3 3 0 0 0 3-3zm-2 0v10a1 1 0 0 1-1 1h-4a1 1 0 0 1-1-1V5a1 1 0 0 1 1-1h4a1 1 0 0 1 1 1zM18 5a3 3 0 0 0-3-3H5a3 3 0 0 0-3 3v4a3 3 0 0 0 3 3h10a3 3 0 0 0 3-3zm-2 0v4a1 1 0 0 1-1 1H5a1 1 0 0 1-1-1V5a1 1 0 0 1 1-1h10a1 1 0 0 1 1 1z" fill="#ffffff" opacity="1" data-original="#000000" class=""></path></g></svg>