<svg xmlns="http://www.w3.org/2000/svg" version="1.1" xmlns:xlink="http://www.w3.org/1999/xlink" width="512" height="512" x="0" y="0" viewBox="0 0 512 512" style="enable-background:new 0 0 512 512" xml:space="preserve"><g><path d="M347 182c-90.981 0-165 74.019-165 165s74.019 165 165 165 165-74.019 165-165-74.019-165-165-165zm0 150c24.814 0 45 20.186 45 45 0 19.53-12.578 36.024-30 42.237V452h-30v-32.763c-17.422-6.213-30-22.707-30-42.237h30c0 8.276 6.724 15 15 15s15-6.724 15-15-6.724-15-15-15c-24.814 0-45-20.186-45-45 0-19.53 12.578-36.024 30-42.237V242h30v32.763c17.422 6.213 30 22.707 30 42.237h-30c0-8.276-6.724-15-15-15s-15 6.724-15 15 6.724 15 15 15zM167 182c92.52 0 165-39.536 165-90S259.52 0 167 0 0 41.536 0 92s74.48 90 167 90zM0 337.559V362c0 50.464 74.48 90 167 90 5.248 0 10.333-.483 15.5-.736a193.732 193.732 0 0 1-25.14-59.625C90.455 389.792 32.362 369.233 0 337.559zM152.721 361.236c-.344-4.718-.721-9.431-.721-14.236 0-15.637 2.049-30.771 5.543-45.353C90.555 299.832 32.391 279.262 0 247.559V272c0 47.787 67.262 85.342 152.721 89.236zM167 272l.046-.002a195.67 195.67 0 0 1 42.133-62.816C195.632 210.894 181.632 212 167 212c-71.217 0-133.074-21.237-167-54.441V182c0 50.464 74.48 90 167 90z" fill="#ffffff" opacity="1" data-original="#000000"></path></g></svg>