<?xml version="1.0" encoding="UTF-8"?>
<svg xmlns="http://www.w3.org/2000/svg" width="512" height="512" viewBox="0 0 24 24"><g id="Layer_2" data-name="Layer 2"><path d="M20.387,1H7.613A2.616,2.616,0,0,0,5,3.613V5H3.613A2.616,2.616,0,0,0,1,7.613V20.387A2.616,2.616,0,0,0,3.613,23H16.387A2.616,2.616,0,0,0,19,20.387V19h1.387A2.616,2.616,0,0,0,23,16.387V3.613A2.616,2.616,0,0,0,20.387,1ZM17,20.387a.614.614,0,0,1-.613.613H3.613A.614.614,0,0,1,3,20.387V7.613A.614.614,0,0,1,3.613,7H16.387A.614.614,0,0,1,17,7.613Zm4-4a.614.614,0,0,1-.613.613H19V7.613A2.616,2.616,0,0,0,16.387,5H7V3.613A.614.614,0,0,1,7.613,3H20.387A.614.614,0,0,1,21,3.613Z"/><path d="M14,13H11V10a1,1,0,0,0-2,0v3H6a1,1,0,0,0,0,2H9v3a1,1,0,0,0,2,0V15h3a1,1,0,0,0,0-2Z"/></g></svg>
