<svg xmlns="http://www.w3.org/2000/svg" version="1.1" xmlns:xlink="http://www.w3.org/1999/xlink" width="512" height="512" x="0" y="0" viewBox="0 0 24 24" style="enable-background:new 0 0 512 512" xml:space="preserve" class=""><g><path d="M22.922 1.7a2.985 2.985 0 0 0-2.458-.648l-6.18 1.123A3.993 3.993 0 0 0 12 3.461a3.993 3.993 0 0 0-2.284-1.289l-6.18-1.123A3 3 0 0 0 0 4v16.834l12 2.183 12-2.183V4a2.992 2.992 0 0 0-1.078-2.3ZM11 20.8l-9-1.634V4a1 1 0 0 1 1.179-.983L9.358 4.14A2 2 0 0 1 11 6.108Zm11-1.636L13 20.8V6.108a2 2 0 0 1 1.642-1.968l6.179-1.123A1 1 0 0 1 22 4Z" fill="#ffffff" opacity="1" data-original="#000000" class=""></path></g></svg>