<svg xmlns="http://www.w3.org/2000/svg" version="1.1" xmlns:xlink="http://www.w3.org/1999/xlink" width="512" height="512" x="0" y="0" viewBox="0 0 24 24" style="enable-background:new 0 0 512 512" xml:space="preserve"><g><path d="M17.792 7.212A8 8 0 0 0 2 9a7.915 7.915 0 0 0 .9 3.671A5.49 5.49 0 0 0 5.5 23H16a8 8 0 0 0 1.792-15.788ZM16 21H5.5a3.491 3.491 0 0 1-.872-6.874 1 1 0 0 0 .554-1.564A5.936 5.936 0 0 1 4 9a6 6 0 0 1 11.94-.8 1 1 0 0 0 .858.86A6 6 0 0 1 16 21Z" fill="#ffffff" opacity="1" data-original="#000000"></path></g></svg>