<svg xmlns="http://www.w3.org/2000/svg" version="1.1" xmlns:xlink="http://www.w3.org/1999/xlink" width="512" height="512" x="0" y="0" viewBox="0 0 24 24" style="enable-background:new 0 0 512 512" xml:space="preserve"><g><path d="M22 8.25c0-1.271-.472-2.423-1.227-3.332 1.951-.38 2.877-2.128 3.1-3.108L24 1.252l-.568-.065a8.379 8.379 0 0 0-.965-.058c-1.224 0-2.22.305-2.971.911a3.434 3.434 0 0 0-.984 1.287 5.183 5.183 0 0 0-1.762-.326c-2.108 0-3.918 1.257-4.752 3.053l-.573-1.3A4.97 4.97 0 0 1 11 2.737v-.736h1V0H3v2h1v.736c0 .698-.143 1.377-.425 2.017l-.896 2.033a7.909 7.909 0 0 0-.664 2.919L-.001 8.667v12.332c0 1.654 1.346 3 3 3h18c1.654 0 3-1.346 3-3V8.667l-2.26 1.163c.161-.509.26-1.039.26-1.581ZM16.75 5A3.254 3.254 0 0 1 20 8.25c0 .638-.197 1.253-.544 1.78l-1.943-1.208-2.756 1.713-.635-.394A3.24 3.24 0 0 1 13.5 8.25 3.254 3.254 0 0 1 16.75 5ZM4.51 7.593l.896-2.033a6.956 6.956 0 0 0 .595-2.823v-.736h3v.736c0 .978.2 1.927.595 2.823l.896 2.033c.263.597.423 1.224.481 1.869l-1.729 1.073-2.756-1.713-2.487 1.546v-.356c0-.839.172-1.653.51-2.42ZM2 21v-9.053l1.776.914 2.711-1.684 2.756 1.711L12 11.176l.74.46.008.011.004-.004 1.248.775v8.581c0 .352.072.686.184 1H3a1 1 0 0 1-1-1Zm20 0a1 1 0 0 1-1 1h-4a1 1 0 0 1-1-1v-8.883l1.513-.939 2.711 1.684L22 11.948v9.053Z" fill="#ffffff" opacity="1" data-original="#000000"></path></g></svg>