<svg xmlns="http://www.w3.org/2000/svg" version="1.1" xmlns:xlink="http://www.w3.org/1999/xlink" width="512" height="512" x="0" y="0" viewBox="0 0 24 24" style="enable-background:new 0 0 512 512" xml:space="preserve"><g><path d="M20.5 17H19v-1a1 1 0 1 0-2 0v1h-4V7.873A4.006 4.006 0 0 0 16 4c0-2.206-1.794-4-4-4S8 1.794 8 4a4.006 4.006 0 0 0 3 3.873V17H3.5C1.57 17 0 18.57 0 20.5S1.57 24 3.5 24h17c1.93 0 3.5-1.57 3.5-3.5S22.43 17 20.5 17ZM10 4c0-1.103.897-2 2-2s2 .897 2 2-.897 2-2 2-2-.897-2-2Zm10.5 18h-17c-.827 0-1.5-.673-1.5-1.5S2.673 19 3.5 19h17c.827 0 1.5.673 1.5 1.5s-.673 1.5-1.5 1.5Z" fill="#ffffff" opacity="1" data-original="#000000"></path></g></svg>