<svg xmlns="http://www.w3.org/2000/svg" version="1.1" xmlns:xlink="http://www.w3.org/1999/xlink" width="512" height="512" x="0" y="0" viewBox="0 0 24 24" style="enable-background:new 0 0 512 512" xml:space="preserve"><g><path d="M23 10h-2c-2.757 0-5 2.243-5 5v3c0 2.206-1.794 4-4 4s-4-1.794-4-4v-3.084A6.009 6.009 0 0 0 13 9V7a1 1 0 1 0 0-2h-2V1a1 1 0 1 0-2 0v4H5V1a1 1 0 1 0-2 0v4H1a1 1 0 1 0 0 2v2a6.009 6.009 0 0 0 5 5.916V18c0 3.309 2.691 6 6 6s6-2.691 6-6v-3c0-1.654 1.346-3 3-3h2a1 1 0 1 0 0-2ZM3 9V7h8v2c0 2.206-1.794 4-4 4s-4-1.794-4-4Z" fill="#ffffff" opacity="1" data-original="#000000"></path></g></svg>