<svg xmlns="http://www.w3.org/2000/svg" version="1.1" xmlns:xlink="http://www.w3.org/1999/xlink" width="512" height="512" x="0" y="0" viewBox="0 0 24 24" style="enable-background:new 0 0 512 512" xml:space="preserve"><g><path d="M19 6h-4.865l3.633-4.36A1 1 0 1 0 16.232.36L12 5.438 7.768.36a1 1 0 1 0-1.536 1.28L9.865 6H5c-2.757 0-5 2.243-5 5v8c0 2.757 2.243 5 5 5h14c2.757 0 5-2.243 5-5v-8c0-2.757-2.243-5-5-5Zm3 13c0 1.654-1.346 3-3 3H5c-1.654 0-3-1.346-3-3v-8c0-1.654 1.346-3 3-3h14c1.654 0 3 1.346 3 3v8Zm-9-9H6c-1.103 0-2 .897-2 2v6c0 1.103.897 2 2 2h7c1.103 0 2-.897 2-2v-6c0-1.103-.897-2-2-2Zm-7 8v-6h7v6H6Zm14-5.5a1.5 1.5 0 1 1-3.001-.001A1.5 1.5 0 0 1 20 12.5Zm0 5a1.5 1.5 0 1 1-3.001-.001A1.5 1.5 0 0 1 20 17.5Z" fill="#ffffff" opacity="1" data-original="#000000"></path></g></svg>