<svg xmlns="http://www.w3.org/2000/svg" version="1.1" xmlns:xlink="http://www.w3.org/1999/xlink" width="512" height="512" x="0" y="0" viewBox="0 0 24 24" style="enable-background:new 0 0 512 512" xml:space="preserve" class=""><g><path d="M19 3H5a5.006 5.006 0 0 0-5 5v6a5.006 5.006 0 0 0 5 5h6v1H8a1 1 0 0 0 0 2h8a1 1 0 0 0 0-2h-3v-1h6a5.006 5.006 0 0 0 5-5V8a5.006 5.006 0 0 0-5-5Zm3 11a3 3 0 0 1-3 3H5a3 3 0 0 1-3-3V8a3 3 0 0 1 3-3h14a3 3 0 0 1 3 3Z" fill="#ffffff" opacity="1" data-original="#000000" class=""></path></g></svg>