<svg xmlns="http://www.w3.org/2000/svg" version="1.1" xmlns:xlink="http://www.w3.org/1999/xlink" width="512" height="512" x="0" y="0" viewBox="0 0 24 24" style="enable-background:new 0 0 512 512" xml:space="preserve"><g><path d="m15.021 7 .336-2.041a3.044 3.044 0 0 0-4.208-3.287 3.139 3.139 0 0 0-1.567 1.553L7.717 7H3a3 3 0 0 0-3 3v9a3 3 0 0 0 3 3h19.018L24 10.963 24.016 7ZM2 19v-9a1 1 0 0 1 1-1h4v11H3a1 1 0 0 1-1-1Zm20-8.3L20.33 20H9V8.909l2.419-4.9a1.07 1.07 0 0 1 1.722-.209 1.024 1.024 0 0 1 .233.84L12.655 9H22Z" data-name="01 align center" fill="#ffffff" opacity="1" data-original="#000000"></path></g></svg>