<svg xmlns="http://www.w3.org/2000/svg" version="1.1" xmlns:xlink="http://www.w3.org/1999/xlink" width="512" height="512" x="0" y="0" viewBox="0 0 24 24" style="enable-background:new 0 0 512 512" xml:space="preserve" class=""><g><g data-name="01 align center"><path d="M9 12a6 6 0 1 0-6-6 6.006 6.006 0 0 0 6 6ZM9 2a4 4 0 1 1-4 4 4 4 0 0 1 4-4ZM21 10V7h-2v3h-3v2h3v3h2v-3h3v-2h-3zM13.043 14H4.957A4.963 4.963 0 0 0 0 18.957V24h2v-5.043A2.96 2.96 0 0 1 4.957 16h8.086A2.96 2.96 0 0 1 16 18.957V24h2v-5.043A4.963 4.963 0 0 0 13.043 14Z" fill="#ffffff" opacity="1" data-original="#000000" class=""></path></g></g></svg>